<svg xmlns="http://www.w3.org/2000/svg" xmlns:xlink="http://www.w3.org/1999/xlink" width="500" zoomAndPan="magnify" viewBox="0 0 375 149.999998" height="200" preserveAspectRatio="xMidYMid meet" version="1.0"><defs><g/><clipPath id="aade1fa5da"><path d="M 286.75 54.0625 L 343.144531 54.0625 L 343.144531 95.683594 L 286.75 95.683594 Z M 286.75 54.0625 " clip-rule="nonzero"/></clipPath></defs><rect x="-37.5" width="450" fill="#ffffff" y="-15" height="179.999997" fill-opacity="1"/><rect x="-37.5" width="450" fill="#000000" y="-15" height="179.999997" fill-opacity="1"/><g fill="#ffffff" fill-opacity="1"><g transform="translate(35.87322, 86.350945)"><g><path d="M 20.765625 -2.125 C 20.972656 -1.769531 21.078125 -1.453125 21.078125 -1.171875 C 21.078125 -0.816406 20.945312 -0.53125 20.6875 -0.3125 C 20.425781 -0.101562 20.085938 0 19.671875 0 C 19.390625 0 19.15625 -0.0546875 18.96875 -0.171875 C 18.78125 -0.296875 18.613281 -0.472656 18.46875 -0.703125 L 12.109375 -10.8125 L 6.28125 -10.8125 L 6.28125 -1.375 C 6.28125 -0.976562 6.148438 -0.648438 5.890625 -0.390625 C 5.640625 -0.128906 5.3125 0 4.90625 0 C 4.507812 0 4.179688 -0.128906 3.921875 -0.390625 C 3.660156 -0.648438 3.53125 -0.976562 3.53125 -1.375 L 3.53125 -26.203125 C 3.53125 -26.597656 3.660156 -26.925781 3.921875 -27.1875 C 4.179688 -27.445312 4.507812 -27.578125 4.90625 -27.578125 L 11.515625 -27.578125 C 13.234375 -27.578125 14.757812 -27.21875 16.09375 -26.5 C 17.4375 -25.78125 18.488281 -24.773438 19.25 -23.484375 C 20.019531 -22.191406 20.40625 -20.71875 20.40625 -19.0625 C 20.40625 -17.25 19.914062 -15.660156 18.9375 -14.296875 C 17.96875 -12.929688 16.644531 -11.957031 14.96875 -11.375 Z M 11.515625 -13.453125 C 12.691406 -13.453125 13.753906 -13.691406 14.703125 -14.171875 C 15.660156 -14.660156 16.40625 -15.328125 16.9375 -16.171875 C 17.46875 -17.015625 17.734375 -17.976562 17.734375 -19.0625 C 17.734375 -20.195312 17.46875 -21.210938 16.9375 -22.109375 C 16.40625 -23.003906 15.664062 -23.695312 14.71875 -24.1875 C 13.78125 -24.6875 12.710938 -24.9375 11.515625 -24.9375 L 6.28125 -24.9375 L 6.28125 -13.453125 Z M 11.515625 -13.453125 "/></g></g></g><g fill="#ffffff" fill-opacity="1"><g transform="translate(57.692378, 86.350945)"><g><path d="M 16.28125 0.359375 C 13.59375 0.359375 11.175781 -0.25 9.03125 -1.46875 C 6.894531 -2.695312 5.21875 -4.390625 4 -6.546875 C 2.789062 -8.703125 2.1875 -11.125 2.1875 -13.8125 C 2.1875 -16.488281 2.789062 -18.898438 4 -21.046875 C 5.21875 -23.191406 6.894531 -24.875 9.03125 -26.09375 C 11.175781 -27.320312 13.59375 -27.9375 16.28125 -27.9375 C 18.9375 -27.9375 21.34375 -27.320312 23.5 -26.09375 C 25.65625 -24.875 27.335938 -23.191406 28.546875 -21.046875 C 29.765625 -18.898438 30.375 -16.488281 30.375 -13.8125 C 30.375 -11.125 29.765625 -8.703125 28.546875 -6.546875 C 27.335938 -4.390625 25.65625 -2.695312 23.5 -1.46875 C 21.34375 -0.25 18.9375 0.359375 16.28125 0.359375 Z M 16.28125 -2.265625 C 18.425781 -2.265625 20.363281 -2.769531 22.09375 -3.78125 C 23.820312 -4.789062 25.179688 -6.171875 26.171875 -7.921875 C 27.160156 -9.679688 27.65625 -11.644531 27.65625 -13.8125 C 27.65625 -15.945312 27.160156 -17.890625 26.171875 -19.640625 C 25.179688 -21.398438 23.820312 -22.785156 22.09375 -23.796875 C 20.363281 -24.804688 18.425781 -25.3125 16.28125 -25.3125 C 14.113281 -25.3125 12.164062 -24.804688 10.4375 -23.796875 C 8.707031 -22.785156 7.347656 -21.398438 6.359375 -19.640625 C 5.367188 -17.890625 4.875 -15.945312 4.875 -13.8125 C 4.875 -11.644531 5.367188 -9.679688 6.359375 -7.921875 C 7.347656 -6.171875 8.707031 -4.789062 10.4375 -3.78125 C 12.164062 -2.769531 14.113281 -2.265625 16.28125 -2.265625 Z M 16.28125 -2.265625 "/></g></g></g><g fill="#ffffff" fill-opacity="1"><g transform="translate(90.209266, 86.350945)"><g><path d="M 24.21875 -1.9375 C 24.3125 -1.769531 24.359375 -1.582031 24.359375 -1.375 C 24.359375 -1 24.222656 -0.675781 23.953125 -0.40625 C 23.679688 -0.132812 23.359375 0 22.984375 0 C 22.367188 0 21.9375 -0.28125 21.6875 -0.84375 L 19.3125 -6.5625 L 5.65625 -6.5625 L 3.28125 -0.84375 C 3.09375 -0.28125 2.671875 0 2.015625 0 C 1.609375 0 1.28125 -0.132812 1.03125 -0.40625 C 0.789062 -0.675781 0.671875 -1 0.671875 -1.375 C 0.671875 -1.613281 0.707031 -1.816406 0.78125 -1.984375 L 11.15625 -26.625 C 11.414062 -27.257812 11.863281 -27.578125 12.5 -27.578125 C 13.132812 -27.578125 13.570312 -27.257812 13.8125 -26.625 Z M 6.640625 -8.9375 L 18.359375 -8.9375 L 12.5 -23.09375 Z M 6.640625 -8.9375 "/></g></g></g><g fill="#ffffff" fill-opacity="1"><g transform="translate(115.029431, 86.350945)"><g><path d="M 4.90625 0 C 4.507812 0 4.179688 -0.128906 3.921875 -0.390625 C 3.660156 -0.648438 3.53125 -0.976562 3.53125 -1.375 L 3.53125 -26.203125 C 3.53125 -26.597656 3.660156 -26.925781 3.921875 -27.1875 C 4.179688 -27.445312 4.507812 -27.578125 4.90625 -27.578125 L 11.265625 -27.578125 C 13.921875 -27.578125 16.296875 -26.988281 18.390625 -25.8125 C 20.492188 -24.632812 22.125 -23.003906 23.28125 -20.921875 C 24.445312 -18.835938 25.03125 -16.46875 25.03125 -13.8125 C 25.03125 -11.144531 24.445312 -8.765625 23.28125 -6.671875 C 22.125 -4.578125 20.492188 -2.941406 18.390625 -1.765625 C 16.296875 -0.585938 13.921875 0 11.265625 0 Z M 11.265625 -2.46875 C 13.410156 -2.46875 15.316406 -2.957031 16.984375 -3.9375 C 18.660156 -4.914062 19.96875 -6.265625 20.90625 -7.984375 C 21.84375 -9.703125 22.3125 -11.644531 22.3125 -13.8125 C 22.3125 -15.976562 21.84375 -17.921875 20.90625 -19.640625 C 19.96875 -21.359375 18.660156 -22.695312 16.984375 -23.65625 C 15.316406 -24.625 13.410156 -25.109375 11.265625 -25.109375 L 6.28125 -25.109375 L 6.28125 -2.46875 Z M 11.265625 -2.46875 "/></g></g></g><g fill="#ffffff" fill-opacity="1"><g transform="translate(142.215103, 86.350945)"><g><path d="M 29.765625 -27.578125 C 30.140625 -27.578125 30.457031 -27.445312 30.71875 -27.1875 C 30.976562 -26.925781 31.109375 -26.597656 31.109375 -26.203125 L 31.109375 -1.375 C 31.109375 -1 30.976562 -0.675781 30.71875 -0.40625 C 30.457031 -0.132812 30.140625 0 29.765625 0 C 29.367188 0 29.035156 -0.132812 28.765625 -0.40625 C 28.492188 -0.675781 28.359375 -1 28.359375 -1.375 L 28.359375 -21.359375 L 18.53125 -1.3125 C 18.25 -0.863281 17.851562 -0.640625 17.34375 -0.640625 C 16.75 -0.640625 16.320312 -0.921875 16.0625 -1.484375 L 6.28125 -21.046875 L 6.28125 -1.375 C 6.28125 -1 6.148438 -0.675781 5.890625 -0.40625 C 5.640625 -0.132812 5.3125 0 4.90625 0 C 4.53125 0 4.207031 -0.132812 3.9375 -0.40625 C 3.664062 -0.675781 3.53125 -1 3.53125 -1.375 L 3.53125 -26.203125 C 3.53125 -26.597656 3.664062 -26.925781 3.9375 -27.1875 C 4.207031 -27.445312 4.53125 -27.578125 4.90625 -27.578125 C 5.445312 -27.578125 5.859375 -27.34375 6.140625 -26.875 L 17.4375 -4.40625 L 28.53125 -26.875 C 28.8125 -27.34375 29.222656 -27.578125 29.765625 -27.578125 Z M 29.765625 -27.578125 "/></g></g></g><g fill="#ffffff" fill-opacity="1"><g transform="translate(176.850364, 86.350945)"><g><path d="M 24.21875 -1.9375 C 24.3125 -1.769531 24.359375 -1.582031 24.359375 -1.375 C 24.359375 -1 24.222656 -0.675781 23.953125 -0.40625 C 23.679688 -0.132812 23.359375 0 22.984375 0 C 22.367188 0 21.9375 -0.28125 21.6875 -0.84375 L 19.3125 -6.5625 L 5.65625 -6.5625 L 3.28125 -0.84375 C 3.09375 -0.28125 2.671875 0 2.015625 0 C 1.609375 0 1.28125 -0.132812 1.03125 -0.40625 C 0.789062 -0.675781 0.671875 -1 0.671875 -1.375 C 0.671875 -1.613281 0.707031 -1.816406 0.78125 -1.984375 L 11.15625 -26.625 C 11.414062 -27.257812 11.863281 -27.578125 12.5 -27.578125 C 13.132812 -27.578125 13.570312 -27.257812 13.8125 -26.625 Z M 6.640625 -8.9375 L 18.359375 -8.9375 L 12.5 -23.09375 Z M 6.640625 -8.9375 "/></g></g></g><g fill="#ffffff" fill-opacity="1"><g transform="translate(201.670528, 86.350945)"><g><path d="M 21.328125 -27.578125 C 21.703125 -27.578125 22.003906 -27.457031 22.234375 -27.21875 C 22.472656 -26.988281 22.59375 -26.6875 22.59375 -26.3125 C 22.59375 -25.957031 22.472656 -25.660156 22.234375 -25.421875 C 22.003906 -25.191406 21.703125 -25.078125 21.328125 -25.078125 L 12.921875 -25.078125 L 12.921875 -1.375 C 12.921875 -1 12.789062 -0.675781 12.53125 -0.40625 C 12.269531 -0.132812 11.941406 0 11.546875 0 C 11.171875 0 10.847656 -0.132812 10.578125 -0.40625 C 10.304688 -0.675781 10.171875 -1 10.171875 -1.375 L 10.171875 -25.078125 L 1.796875 -25.078125 C 1.421875 -25.078125 1.113281 -25.191406 0.875 -25.421875 C 0.644531 -25.660156 0.53125 -25.957031 0.53125 -26.3125 C 0.53125 -26.6875 0.644531 -26.988281 0.875 -27.21875 C 1.113281 -27.457031 1.421875 -27.578125 1.796875 -27.578125 Z M 21.328125 -27.578125 "/></g></g></g><g fill="#ffffff" fill-opacity="1"><g transform="translate(224.796008, 86.350945)"><g><path d="M 4.90625 0 C 4.53125 0 4.207031 -0.132812 3.9375 -0.40625 C 3.664062 -0.675781 3.53125 -1 3.53125 -1.375 L 3.53125 -26.203125 C 3.53125 -26.597656 3.664062 -26.925781 3.9375 -27.1875 C 4.207031 -27.445312 4.53125 -27.578125 4.90625 -27.578125 L 21.46875 -27.578125 C 21.863281 -27.578125 22.191406 -27.445312 22.453125 -27.1875 C 22.710938 -26.925781 22.84375 -26.609375 22.84375 -26.234375 C 22.84375 -25.859375 22.710938 -25.546875 22.453125 -25.296875 C 22.191406 -25.054688 21.863281 -24.9375 21.46875 -24.9375 L 6.28125 -24.9375 L 6.28125 -15.1875 L 17.34375 -15.1875 C 17.738281 -15.1875 18.066406 -15.054688 18.328125 -14.796875 C 18.585938 -14.535156 18.71875 -14.21875 18.71875 -13.84375 C 18.71875 -13.46875 18.582031 -13.148438 18.3125 -12.890625 C 18.039062 -12.628906 17.71875 -12.5 17.34375 -12.5 L 6.28125 -12.5 L 6.28125 -2.640625 L 21.46875 -2.640625 C 21.863281 -2.640625 22.191406 -2.515625 22.453125 -2.265625 C 22.710938 -2.023438 22.84375 -1.71875 22.84375 -1.34375 C 22.84375 -0.96875 22.710938 -0.648438 22.453125 -0.390625 C 22.191406 -0.128906 21.863281 0 21.46875 0 Z M 4.90625 0 "/></g></g></g><g fill="#ffffff" fill-opacity="1"><g transform="translate(249.227809, 86.350945)"><g><path d="M 12 0.359375 C 9.769531 0.359375 7.785156 -0.113281 6.046875 -1.0625 C 4.316406 -2.019531 3.078125 -3.3125 2.328125 -4.9375 C 2.234375 -5.101562 2.1875 -5.296875 2.1875 -5.515625 C 2.1875 -5.835938 2.3125 -6.109375 2.5625 -6.328125 C 2.8125 -6.554688 3.144531 -6.671875 3.5625 -6.671875 C 3.84375 -6.671875 4.109375 -6.59375 4.359375 -6.4375 C 4.609375 -6.289062 4.789062 -6.078125 4.90625 -5.796875 C 5.445312 -4.734375 6.347656 -3.878906 7.609375 -3.234375 C 8.867188 -2.585938 10.332031 -2.265625 12 -2.265625 C 13.9375 -2.265625 15.492188 -2.726562 16.671875 -3.65625 C 17.847656 -4.582031 18.4375 -5.882812 18.4375 -7.5625 C 18.4375 -9.039062 17.890625 -10.285156 16.796875 -11.296875 C 15.703125 -12.304688 14.054688 -12.953125 11.859375 -13.234375 C 9.128906 -13.566406 6.984375 -14.421875 5.421875 -15.796875 C 3.859375 -17.179688 3.078125 -18.875 3.078125 -20.875 C 3.078125 -22.28125 3.457031 -23.519531 4.21875 -24.59375 C 4.988281 -25.664062 6.046875 -26.488281 7.390625 -27.0625 C 8.742188 -27.644531 10.28125 -27.9375 12 -27.9375 C 13.863281 -27.9375 15.5 -27.519531 16.90625 -26.6875 C 18.320312 -25.863281 19.429688 -24.796875 20.234375 -23.484375 C 20.398438 -23.222656 20.484375 -22.941406 20.484375 -22.640625 C 20.484375 -22.191406 20.269531 -21.835938 19.84375 -21.578125 C 19.65625 -21.484375 19.441406 -21.4375 19.203125 -21.4375 C 18.953125 -21.4375 18.710938 -21.5 18.484375 -21.625 C 18.265625 -21.757812 18.082031 -21.941406 17.9375 -22.171875 C 16.625 -24.242188 14.632812 -25.289062 11.96875 -25.3125 C 10.0625 -25.3125 8.554688 -24.910156 7.453125 -24.109375 C 6.347656 -23.316406 5.796875 -22.175781 5.796875 -20.6875 C 5.796875 -17.9375 8.019531 -16.265625 12.46875 -15.671875 C 15.382812 -15.253906 17.5625 -14.363281 19 -13 C 20.4375 -11.632812 21.15625 -9.832031 21.15625 -7.59375 C 21.15625 -5.945312 20.753906 -4.519531 19.953125 -3.3125 C 19.148438 -2.113281 18.050781 -1.203125 16.65625 -0.578125 C 15.269531 0.046875 13.71875 0.359375 12 0.359375 Z M 12 0.359375 "/></g></g></g><g clip-path="url(#aade1fa5da)"><path fill="#ffffff" d="M 290.308594 70.867188 C 289.339844 74.210938 288.507812 75.582031 288.492188 79.695312 C 288.484375 83.289062 288.5 86.886719 288.496094 90.484375 C 288.488281 95.292969 288.832031 95.914062 293.753906 95.929688 C 298.847656 95.945312 298.234375 94.039062 298.25 89.542969 L 331.59375 89.511719 C 331.632812 93.847656 331.039062 95.945312 335.882812 95.929688 C 342.796875 95.914062 341.347656 94.636719 341.355469 79.941406 C 341.355469 75.976562 340.644531 74.136719 339.527344 70.863281 C 342.796875 70.753906 346.75 63.222656 336.882812 64.761719 C 336.363281 63.132812 335.652344 61.601562 334.96875 60.003906 C 334.113281 57.984375 334.050781 57.3125 332.664062 55.90625 C 331.492188 54.710938 329.816406 54.214844 327.929688 54.113281 L 327.078125 54.0625 L 301.671875 54.144531 C 296.964844 54.183594 295.972656 57.4375 294.746094 60.324219 C 294.261719 61.449219 293.433594 63.953125 292.757812 64.714844 C 283.261719 63.28125 287.089844 70.742188 290.308594 70.867188 Z M 301.625 82.988281 L 301.625 78.011719 L 328.269531 78.011719 L 328.269531 82.988281 Z M 297.96875 81.292969 C 297.96875 82.933594 296.625 84.265625 294.960938 84.265625 C 293.300781 84.265625 291.953125 82.933594 291.953125 81.292969 C 291.953125 79.652344 293.300781 78.308594 294.960938 78.308594 C 296.625 78.308594 297.96875 79.652344 297.96875 81.292969 Z M 337.945312 81.292969 C 337.945312 82.933594 336.59375 84.265625 334.9375 84.265625 C 333.269531 84.265625 331.925781 82.933594 331.925781 81.292969 C 331.925781 79.652344 333.269531 78.308594 334.9375 78.308594 C 336.59375 78.308594 337.945312 79.652344 337.945312 81.292969 Z M 301.996094 56.597656 C 303.839844 56.121094 312.910156 56.4375 315.5625 56.4375 C 329.050781 56.4375 328.949219 55.0625 331.507812 61.226562 C 332.171875 62.847656 332.875 64.5 333.527344 66.09375 C 334.058594 67.421875 335.777344 70.175781 334.4375 71.160156 C 333.445312 71.890625 303.035156 71.496094 300.195312 71.496094 C 293.699219 71.496094 293.964844 71.761719 296.691406 65.183594 C 298.265625 61.371094 299.195312 57.316406 301.996094 56.597656 " fill-opacity="1" fill-rule="evenodd"/></g></svg>